# AST/ASF file generated using VICON BodyLanguage
# -----------------------------------------------
:version 1.10
:name VICON
:units
  mass 1.0
  length 0.45
  angle deg
:documentation
   .ast/.asf automatically generated from VICON data using
   VICON BodyBuilder and BodyLanguage model FoxedUp or BRILLIANT.MOD
:root
   order TX TY TZ RX RY RZ
   axis XYZ
   position 0 0 0  
   orientation 0 0 0 
:bonedata
  begin
     id 1 
     name lhipjoint
     direction 0.577973 -0.728611 0.367523 
     length 2.48544 
     axis 0 0 0  XYZ
  end
  begin
     id 2 
     name lfemur
     direction 0.34202 -0.939693 0  
     length 7.1921  
     axis 0 0 20  XYZ
    dof rx ry rz
    limits (-160.0 20.0)
           (-70.0 70.0)
           (-60.0 70.0)
  end
  begin
     id 3 
     name ltibia
     direction 0.34202 -0.939693 0   
     length 7.71059   
     axis 0 0 20   XYZ
    dof rx
    limits (-10.0 170.0)
  end
  begin
     id 4 
     name lfoot
     direction 0.089538 -0.246004 0.965124   
     length 2.19909   
     axis -90 7.62852e-016 20   XYZ
    dof rx rz
    limits (-45.0 90.0)
           (-70.0 20.0)
  end
  begin
     id 5 
     name ltoes
     direction 1.53544e-011 -4.21829e-011 1   
     length 1.10116   
     axis -90 7.62852e-016 20   XYZ
    dof rx
    limits (-90.0 20.0)
  end
  begin
     id 6 
     name rhipjoint
     direction -0.554414 -0.743062 0.374812   
     length 2.4371  
     axis 0 0 0  XYZ 
  end
  begin
     id 7 
     name rfemur
     direction -0.34202 -0.939693 0   
     length 7.47254   
     axis 0 0 -20   XYZ
    dof rx ry rz
    limits (-160.0 20.0)
           (-70.0 70.0)
           (-70.0 60.0)
  end
  begin
     id 8 
     name rtibia
     direction -0.34202 -0.939693 0   
     length 7.65855   
     axis 0 0 -20   XYZ
    dof rx
    limits (-10.0 170.0)
 end
 begin
     id 9 
     name rfoot
     direction -0.133779 -0.367555 0.92033   
     length 2.43006  
     axis -90 -7.62852e-016 -20   XYZ
    dof rx rz
    limits (-45.0 90.0)
           (-20.0 70.0)
  end
  begin
     id 10 
     name rtoes
     direction -1.53563e-011 -4.21889e-011 1   
     length 1.19625   
     axis -90 -7.62852e-016 -20   XYZ
    dof rx
    limits (-90.0 20.0)
  end
  begin
     id 11 
     name lowerback
     direction 0.0249066 0.998043 -0.0573585   
     length 2.08485   
     axis 0 0 0   XYZ
    dof rx ry rz
    limits (-20.0 45.0)
           (-30.0 30.0)
           (-30.0 30.0)
  end
  begin
     id 12 
     name upperback
     direction 0.0237884 0.999673 0.00943178   
     length 2.08515   
     axis 0 0 0   XYZ
    dof rx ry rz
    limits (-20.0 45.0)
           (-30.0 30.0)
           (-30.0 30.0)
  end
  begin
     id 13 
     name thorax
     direction 0.0106671 0.999301 0.0358174   
     length 2.09037   
     axis 0 0 0   XYZ
    dof rx ry rz
    limits (-20.0 45.0)
           (-30.0 30.0)
           (-30.0 30.0)
  end
  begin
     id 14 
     name lowerneck
     direction -0.0580016 0.987052 0.149546   
     length 1.84454   
     axis 0 0 0   XYZ
    dof rx ry rz
    limits (-20.0 45.0)
           (-30.0 30.0)
           (-30.0 30.0)
  end
  begin
     id 15 
     name upperneck
     direction 0.079456 0.981963 -0.171567   
     length 1.88141   
     axis 0 0 0   XYZ
    dof rx ry rz
    limits (-20.0 45.0)
           (-30.0 30.0)
           (-30.0 30.0)
  end
  begin
     id 16
     name head
     direction 0.0262167 0.9967 -0.0768276  
     length 1.89541  
     axis 0 0 0   XYZ
    dof rx ry rz
    limits (-20.0 45.0)
           (-30.0 30.0)
           (-30.0 30.0)
  end
  begin
     id 17 
     name lclavicle
     direction 0.946135 0.322134 -0.0325326  
     length 3.949  
     axis 0 0 0   XYZ
    dof ry rz
    limits (-20.0 10.0)
           (0.0 20.0)
  end
  begin
     id 18 
     name lhumerus
     direction 1 -4.48964e-011 1.94005e-028   
     length 5.10995   
     axis 180 -30 -90   XYZ
    dof rx ry rz
    limits (-60.0 90.0)
           (-90.0 90.0)
           (-90.0 90.0)
  end
  begin
     id 19
     name lradius
     direction 1 -4.48976e-011 2.87852e-027   
     length 3.21207   
     axis 180 -30 -90   XYZ
    dof rx
    limits (-10.0 170.0)
  end
  begin
     id 20
     name lwrist
     direction 1 -4.48963e-011 1.9975e-027   
     length 1.60604   
     axis 2.96054e-016 90 90   XYZ
    dof ry
    limits (-180.0 0.0)
 end
  begin
     id 21 
     name lhand
     direction 1 -4.48919e-011 4.00227e-027   
     length 0.63349   
     axis -2.5488e-015 90 90   XYZ
    dof rx rz
    limits (-90.0 90.0)
           (-45.0 45.0)
  end
  begin
     id 22 
     name lfingers
     direction 1 -4.49037e-011 7.9652e-027   
     length 0.510736   
     axis -5.0975e-015 90 90   XYZ
    dof rx
    limits (0.0 90.0)
  end
  begin
     id 23
     name lthumb
     direction 0.707107 -6.34922e-011 0.707107   
     length 0.733318   
     axis -90 45 -4.48553e-014   XYZ
    dof rx rz
    limits (-45.0 45.0)
           (-45.0 45.0)
  end
  begin
     id 24 
     name rclavicle
     direction -0.940085 0.328911 -0.0897654   
     length 3.93848  
     axis 0 0 0   XYZ 
    dof ry rz
    limits (-10.0 20.0)
           (-20.0 0.0)
  end
  begin
     id 25 
     name rhumerus
     direction -1 -4.48958e-011 3.02044e-027  
     length 5.25109   
     axis 180 30 90   XYZ
    dof rx ry rz
    limits (-90.0 60.0)
           (-90.0 90.0)
           (-90.0 90.0)
  end
  begin
     id 26 
     name rradius
     direction -1 -4.4897e-011 9.78352e-028   
     length 3.28364   
     axis 180 30 90   XYZ
    dof rx
    limits (-10.0 170.0)
  end
  begin
     id 27 
     name rwrist
     direction -1 -4.48943e-011 1.99918e-027   
     length 1.64182   
     axis 2.96054e-016 -90 -90   XYZ
    dof ry
    limits (-180.0 0.0)
  end
  begin
     id 28
     name rhand
     direction -1 -4.49024e-011 3.98478e-027   
     length 0.599745   
     axis -2.5488e-015 -90 -90   XYZ
    dof rx rz
    limits (-90.0 90.0)
           (-45.0 45.0)
  end
  begin
     id 29
     name rfingers
     direction -1 -4.48914e-011 8.00621e-027   
     length 0.48353   
     axis -5.0975e-015 -90 -90   XYZ
    dof rx
    limits (0.0 90.0)
  end
  begin
     id 30
     name rthumb
     direction -0.707107 -6.34992e-011 0.707107   
     length 0.694255   
     axis -90 -45 4.48553e-014   XYZ
    dof rx rz
    limits (-45.0 45.0)
           (-45.0 45.0)
  end
:hierarchy
  begin
    root lhipjoint rhipjoint lowerback
    lhipjoint lfemur
    lfemur ltibia
    ltibia lfoot
    lfoot ltoes
    rhipjoint rfemur
    rfemur rtibia
    rtibia rfoot
    rfoot rtoes
    lowerback upperback
    upperback thorax
    thorax lowerneck lclavicle rclavicle
    lowerneck upperneck
    upperneck head
    lclavicle lhumerus
    lhumerus lradius
    lradius lwrist
    lwrist lhand lthumb
    lhand lfingers
    rclavicle rhumerus
    rhumerus rradius
    rradius rwrist
    rwrist rhand rthumb
    rhand rfingers
  end

#!OML:ASF E:\CV Data\Top Level 1\Subject 1\Session 1\player.ASF
:FULLY-SPECIFIED
:DEGREES
386
root 6.02475 17.8348 -3.55285 11.2894 -9.05932 -0.879598
lowerback 3.08839 3.70725 -1.24912
upperback -1.83901 4.93214 1.08821
thorax -3.82508 2.50241 1.49682
lowerneck -12.8341 -10.4114 -14.5597
upperneck 13.2985 -12.9513 9.70639
head 7.80134 -6.17467 4.01637
rclavicle 6.75371e-014 1.74931e-014
rhumerus -1.58545 18.6994 -77.8068
rradius 91.1355
rwrist 9.09895
rhand -36.4475 18.3321
rfingers 7.12502
rthumb -9.5416 -11.4318
lclavicle 6.75371e-014 1.74931e-014
lhumerus -21.9555 -29.7665 96.657
lradius 88.1588
lwrist 42.7071
lhand -26.4432 28.5533
lfingers 7.12502
lthumb 0.117655 58.533
rfemur -8.83328 -11.134 14.0789
rtibia 18.6598
rfoot -16.1429 -28.5856
rtoes 4.44374
lfemur -22.0816 -0.736048 -20.1699
ltibia 19.3088
lfoot -6.17205 -8.1031
ltoes 2.7003
387
root 6.01982 17.835 -3.55999 11.3113 -9.07359 -0.874968
lowerback 3.10684 3.63015 -1.26315
upperback -1.86299 4.82878 1.0953
thorax -3.85807 2.45172 1.51685
lowerneck -12.9643 -10.2837 -14.4785
upperneck 13.3557 -12.7593 9.61206
head 7.80614 -6.08322 3.99585
rclavicle -1.25234e-014 4.77083e-015
rhumerus -1.36942 18.9364 -77.7386
rradius 91.3203
rwrist 9.67219
rhand -36.6863 18.7281
rfingers 7.12502
rthumb -9.77198 -11.0252
lclavicle -1.25234e-014 4.77083e-015
lhumerus -21.4142 -29.9 96.4937
lradius 88.186
lwrist 42.511
lhand -26.3093 28.4158
lfingers 7.12502
lthumb 0.246968 58.3954
rfemur -8.93356 -11.1535 14.1065
rtibia 18.7448
rfoot -16.1087 -28.5869
rtoes 4.26257
lfemur -22.1344 -0.833347 -20.1262
ltibia 19.3271
lfoot -6.14037 -8.03148
ltoes 2.68165
388
root 6.01458 17.8349 -3.56754 11.3171 -9.07495 -0.878398
lowerback 3.16058 3.55061 -1.26116
upperback -1.88763 4.72249 1.09886
thorax -3.90986 2.39912 1.52233
lowerneck -13.1109 -10.1564 -14.3919
upperneck 13.4318 -12.5672 9.51178
head 7.81958 -5.99154 3.9717
rclavicle 3.47873e-016 2.0276e-014
rhumerus -1.13773 19.1918 -77.6708
rradius 91.5098
rwrist 10.21
rhand -36.9491 19.153
rfingers 7.12502
rthumb -10.0255 -10.5882
lclavicle 3.47873e-016 2.0276e-014
lhumerus -20.8755 -30.0243 96.3245
lradius 88.2018
lwrist 42.291
lhand -26.1946 28.2353
lfingers 7.12502
lthumb 0.357776 58.2147
rfemur -9.01625 -11.1576 14.141
rtibia 18.8477
rfoot -16.1282 -28.5911
rtoes 4.17833
lfemur -22.1767 -0.936217 -20.071
ltibia 19.357
lfoot -6.11379 -7.966
ltoes 2.6621
389
root 6.00918 17.8347 -3.57548 11.3088 -9.07066 -0.89121
lowerback 3.23932 3.47515 -1.24089
upperback -1.91283 4.6221 1.09593
thorax -3.97454 2.34889 1.50916
lowerneck -13.2473 -10.0318 -14.3015
upperneck 13.5105 -12.382 9.4149
head 7.83333 -5.90309 3.94746
rclavicle 3.03147e-015 -8.74653e-015
rhumerus -0.903661 19.4441 -77.6
rradius 91.7028
rwrist 10.6886
rhand -37.2158 19.7311
rfingers 7.12502
rthumb -10.2828 -9.99753
lclavicle 3.03147e-015 -8.74653e-015
lhumerus -20.3324 -30.1463 96.1514
lradius 88.1989
lwrist 42.0764
lhand -26.1103 28.047
lfingers 7.12502
lthumb 0.43919 58.0263
rfemur -9.08335 -11.144 14.1823
rtibia 18.9647
rfoot -16.2009 -28.5928
rtoes 4.20162
lfemur -22.2128 -1.04222 -20.0047
ltibia 19.4028
lfoot -6.09063 -7.89814
ltoes 2.63475
390
root 6.00361 17.8341 -3.58386 11.2834 -9.0638 -0.911533
lowerback 3.34419 3.40484 -1.20957
upperback -1.93761 4.52886 1.09
thorax -4.05284 2.30187 1.48487
lowerneck -13.3642 -9.91131 -14.2174
upperneck 13.5862 -12.2054 9.32587
head 7.84512 -5.81908 3.92625
rclavicle -4.37326e-015 1.78906e-014
rhumerus -0.667584 19.7118 -77.518
rradius 91.8961
rwrist 11.1781
rhand -37.604 20.3771
rfingers 7.12502
rthumb -10.6573 -9.33259
lclavicle -4.37326e-015 1.78906e-014
lhumerus -19.7875 -30.2724 95.987
lradius 88.1734
lwrist 41.8968
lhand -26.0797 27.8044
lfingers 7.12502
lthumb 0.468805 57.7836
rfemur -9.13162 -11.1163 14.2282
rtibia 19.0916
rfoot -16.3127 -28.5904
rtoes 4.30937
lfemur -22.2415 -1.14234 -19.9315
ltibia 19.4687
lfoot -6.07487 -7.8311
ltoes 2.58355
